<?xml version="1.0" encoding="utf-8"?>
<!-- Generator: Adobe Illustrator 23.0.3, SVG Export Plug-In . SVG Version: 6.00 Build 0)  -->
<svg version="1.1" id="Layer_1" xmlns="http://www.w3.org/2000/svg" xmlns:xlink="http://www.w3.org/1999/xlink" x="0px" y="0px"
	 viewBox="0 0 254 295" style="enable-background:new 0 0 254 295;" xml:space="preserve">
<style type="text/css">
	.st0{fill:#558EFF;}
	.st1{enable-background:new    ;}
</style>
<g>
	<polygon class="st0" points="2.91,219.13 2.91,75.73 127.11,4.02 251.31,75.73 251.31,219.14 127.11,290.84 	"/>
	<path d="M127.11,7.49l121.2,69.97V217.4l-121.2,69.97L5.91,217.4V77.46L127.11,7.49 M127.11,0.56L-0.09,74v146.87l127.2,73.44
		l127.2-73.44V74L127.11,0.56L127.11,0.56z"/>
</g>
<g class="st1">
	<path d="M115.4,132.45c0,0.26-0.18,0.45-0.55,0.55c-0.44,0.12-1.8,0.18-4.09,0.18c-2.1,0-3.44-0.06-4.04-0.18
		c-0.5-0.1-0.81-0.43-0.95-0.99c-0.5-2.11-0.89-3.24-1.17-3.39c-0.23-0.1-2.2-0.15-5.89-0.15c-2.49,0-3.82,0.07-3.98,0.2
		c-0.25,0.24-0.53,1.02-0.84,2.35c-0.28,1.22-0.62,1.88-1.01,1.98c-0.5,0.12-2.17,0.18-5.01,0.18c-2.24,0-3.36-0.21-3.36-0.64
		c0-0.38,1.66-5.06,4.97-14.05c3.59-9.72,5.54-15.06,5.85-16.03c0.18-0.56,0.38-0.84,0.62-0.84c0.4,0,1.01,0.04,1.84,0.11
		s1.45,0.11,1.86,0.11c0.4,0,0.98-0.03,1.75-0.08c0.77-0.05,1.34-0.08,1.73-0.08c0.28,0,0.54,0.24,0.77,0.73
		c0.72,1.54,2.81,6.81,6.29,15.83C113.66,127.32,115.4,132.05,115.4,132.45z M99.81,112.42c-0.31,0.65-0.83,2.04-1.56,4.2
		c-0.79,2.29-1.19,3.63-1.19,4.02c0,0.26,0.44,0.41,1.32,0.44c0.45,0.03,1.2,0.04,2.24,0.04c0.97,0,1.5-0.12,1.6-0.35
		c0.03-0.07,0.04-0.18,0.04-0.31c0-0.48-0.34-1.82-1.01-4C100.61,114.36,100.12,113.01,99.81,112.42z"/>
	<path d="M141.74,122.43c0,3.14-0.92,5.74-2.77,7.8c-1.91,2.14-4.4,3.21-7.5,3.21c-1.13,0-2.34-0.28-3.63-0.83
		c-1.29-0.56-1.88-0.84-1.76-0.84c-0.19,0-0.29,0.22-0.29,0.66c0,0.75,0.04,1.87,0.11,3.37c0.07,1.5,0.11,2.63,0.11,3.38
		c0,0.47-0.24,0.7-0.73,0.7l-4.48,0.02c-1.01,0-1.66-0.04-1.96-0.11c-0.44-0.1-0.66-0.37-0.66-0.81l0.04-16.93
		c0-3.41-0.26-6.29-0.77-8.64c-0.03-0.15-0.04-0.27-0.04-0.37c0-0.22,0.09-0.37,0.26-0.44c0.57-0.22,1.66-0.45,3.28-0.7
		c1.57-0.25,2.7-0.37,3.41-0.37c0.57,0,0.9,0.38,0.98,1.13s0.18,1.13,0.3,1.13c-0.15,0,0.48-0.4,1.88-1.2c1.4-0.8,2.67-1.2,3.81-1.2
		c3.18,0,5.72,1.05,7.63,3.14C140.81,116.56,141.74,119.19,141.74,122.43z M133.58,122.38c0-1.17-0.36-2.2-1.08-3.08
		c-0.78-0.92-1.74-1.38-2.88-1.38c-1.17,0-2.11,0.46-2.81,1.38c-0.62,0.84-0.92,1.86-0.92,3.08c0,1.25,0.32,2.28,0.97,3.1
		c0.69,0.89,1.64,1.34,2.86,1.34C132.29,126.82,133.58,125.34,133.58,122.38z"/>
	<path d="M168.84,122.43c0,3.14-0.92,5.74-2.77,7.8c-1.91,2.14-4.4,3.21-7.5,3.21c-1.13,0-2.34-0.28-3.63-0.83
		c-1.29-0.56-1.88-0.84-1.76-0.84c-0.19,0-0.29,0.22-0.29,0.66c0,0.75,0.04,1.87,0.11,3.37c0.07,1.5,0.11,2.63,0.11,3.38
		c0,0.47-0.24,0.7-0.73,0.7l-4.48,0.02c-1.01,0-1.66-0.04-1.96-0.11c-0.44-0.1-0.66-0.37-0.66-0.81l0.04-16.93
		c0-3.41-0.26-6.29-0.77-8.64c-0.03-0.15-0.04-0.27-0.04-0.37c0-0.22,0.09-0.37,0.26-0.44c0.57-0.22,1.66-0.45,3.28-0.7
		c1.57-0.25,2.7-0.37,3.41-0.37c0.57,0,0.9,0.38,0.98,1.13c0.08,0.75,0.18,1.13,0.3,1.13c-0.15,0,0.48-0.4,1.88-1.2
		s2.67-1.2,3.81-1.2c3.18,0,5.72,1.05,7.63,3.14C167.92,116.56,168.84,119.19,168.84,122.43z M160.69,122.38
		c0-1.17-0.36-2.2-1.08-3.08c-0.78-0.92-1.74-1.38-2.88-1.38c-1.17,0-2.11,0.46-2.81,1.38c-0.62,0.84-0.92,1.86-0.92,3.08
		c0,1.25,0.32,2.28,0.97,3.1c0.69,0.89,1.64,1.34,2.86,1.34C159.4,126.82,160.69,125.34,160.69,122.38z"/>
</g>
<g class="st1">
	<path d="M118.42,171.44c0,4.31-1.39,8.05-4.16,11.21c-2.45,2.83-5.88,4.32-10.31,4.46c-0.85,0.03-3.19,0.04-7.01,0.04
		c-0.72,0-1.8-0.02-3.24-0.07c-1.44-0.04-2.52-0.07-3.24-0.07c-0.43,0-0.64-0.17-0.64-0.51c0-1.61,0.06-4.03,0.19-7.27
		c0.12-3.23,0.19-5.65,0.19-7.27c0-1.68-0.06-4.21-0.19-7.57c-0.13-3.36-0.19-5.88-0.19-7.55c0-0.31,0.21-0.49,0.64-0.55
		c1.04-0.12,2.75-0.18,5.12-0.18c4.51,0,7.44,0.07,8.77,0.2c3.47,0.35,6.19,1.23,8.16,2.64c1.85,1.32,3.31,3.17,4.38,5.54
		C117.91,166.76,118.42,169.07,118.42,171.44z M110,171.44c0-2.48-0.74-4.5-2.22-6.07c-1.5-1.63-3.47-2.44-5.94-2.44
		c-2.26,0-3.39,0.3-3.39,0.9c0,0.86-0.01,2.17-0.04,3.9c-0.03,1.74-0.04,3.04-0.04,3.9c0,0.85,0.01,2.13,0.04,3.84
		c0.03,1.71,0.04,2.99,0.04,3.86c0,0.63,1.17,0.95,3.52,0.95c2.54,0,4.53-0.84,5.98-2.53C109.32,176.16,110,174.05,110,171.44z"/>
	<path d="M141.81,175.09c0,1.48-0.48,2.32-1.43,2.53c-0.16,0.03-1.68,0.19-4.55,0.48c-1.73,0.19-4.31,0.42-7.74,0.68
		c0.2,0.95,0.83,1.68,1.87,2.18c0.85,0.41,1.82,0.62,2.9,0.62c1.3,0,2.62-0.35,3.94-1.05c0.56-0.35,1.11-0.7,1.67-1.06
		c0.31,0.15,0.82,0.89,1.55,2.24c0.73,1.35,1.09,2.21,1.09,2.57c0,0.1-0.11,0.27-0.33,0.51c-1.79,1.92-4.57,2.88-8.33,2.88
		c-3.49,0-6.3-1.02-8.44-3.06c-2.2-2.07-3.3-4.83-3.3-8.29c0-3.37,0.98-6.13,2.95-8.29c2.02-2.23,4.7-3.34,8.05-3.34
		c2.81,0,5.2,1.03,7.17,3.08S141.81,172.26,141.81,175.09z M134.12,173.75c0-0.91-0.32-1.71-0.97-2.4
		c-0.64-0.69-1.41-1.03-2.31-1.03c-0.92,0-1.69,0.39-2.29,1.17c-0.56,0.72-0.83,1.56-0.83,2.53c0,0.4,0.21,0.59,0.62,0.59
		c1.08,0,2.77-0.17,5.06-0.51C133.88,174.03,134.12,173.91,134.12,173.75z"/>
	<path d="M165.38,171.77c0,2.51-0.08,3.99-0.24,4.44c-0.34,1.04-1.35,2.81-3.03,5.3c-1.46,2.14-2.72,3.81-3.76,5.01
		c-0.38,0.46-1.53,0.68-3.45,0.68c-1.67,0-2.76-0.06-3.25-0.18c-0.31-0.07-0.56-0.22-0.77-0.44c-0.88-0.95-2.13-2.61-3.76-4.97
		c-1.74-2.54-2.79-4.27-3.12-5.21c-0.37-1.01-0.55-2.53-0.55-4.55c0-0.57,0.01-1.43,0.02-2.58s0.02-2.02,0.02-2.6
		c0-0.38,0.26-0.57,0.77-0.57c0.75,0,1.87,0.02,3.38,0.07c1.5,0.04,2.63,0.07,3.37,0.07c0.34,0,0.51,0.23,0.51,0.68
		c0,0.41-0.03,1.03-0.09,1.86c-0.06,0.83-0.09,1.46-0.09,1.88c0,1.52,0.04,2.77,0.13,3.74c0.04,0.5,0.47,1.44,1.28,2.81
		c0.83,1.45,1.44,2.18,1.82,2.18c0.37,0,0.95-0.71,1.76-2.13c0.78-1.33,1.19-2.24,1.25-2.73c0.12-1.04,0.18-2.3,0.18-3.78
		c0-0.42-0.04-1.07-0.13-1.92s-0.13-1.49-0.13-1.9c0-0.45,0.15-0.68,0.46-0.68c0.35,0,0.88,0.01,1.57,0.02s1.22,0.02,1.57,0.02
		s0.88-0.03,1.59-0.09s1.24-0.09,1.59-0.09c0.37,0,0.61,0.19,0.73,0.57C165.26,167.51,165.38,169.21,165.38,171.77z"/>
</g>
</svg>
