<?xml version="1.0" encoding="utf-8"?>
<!-- Generator: Adobe Illustrator 23.0.3, SVG Export Plug-In . SVG Version: 6.00 Build 0)  -->
<svg version="1.1" id="Layer_1" xmlns="http://www.w3.org/2000/svg" xmlns:xlink="http://www.w3.org/1999/xlink" x="0px" y="0px"
	 viewBox="0 0 254 295" style="enable-background:new 0 0 254 295;" xml:space="preserve">
<style type="text/css">
	.st0{fill:#CE6AFF;}
	.st1{enable-background:new    ;}
</style>
<g>
	<polygon class="st0" points="3.41,219.14 3.41,75.73 127.61,4.03 251.81,75.73 251.81,219.14 127.61,290.85 	"/>
	<path d="M127.61,7.49l121.2,69.97v139.95l-121.2,69.97L6.41,217.41V77.47L127.61,7.49 M127.61,0.56L0.41,74v146.87l127.2,73.44
		l127.2-73.44V74L127.61,0.56L127.61,0.56z"/>
</g>
<g class="st1">
	<path d="M101.67,119.19c0,4.31-1.39,8.05-4.16,11.21c-2.45,2.83-5.88,4.32-10.31,4.46c-0.85,0.03-3.19,0.04-7.01,0.04
		c-0.72,0-1.8-0.02-3.24-0.07c-1.44-0.04-2.52-0.07-3.24-0.07c-0.43,0-0.64-0.17-0.64-0.51c0-1.61,0.06-4.03,0.19-7.27
		c0.12-3.23,0.19-5.65,0.19-7.27c0-1.68-0.06-4.21-0.19-7.57c-0.13-3.36-0.19-5.88-0.19-7.55c0-0.31,0.21-0.49,0.64-0.55
		c1.04-0.12,2.75-0.18,5.12-0.18c4.51,0,7.44,0.07,8.77,0.2c3.47,0.35,6.19,1.23,8.16,2.64c1.85,1.32,3.31,3.17,4.38,5.54
		C101.16,114.51,101.67,116.82,101.67,119.19z M93.25,119.19c0-2.48-0.74-4.5-2.22-6.07c-1.5-1.63-3.47-2.44-5.94-2.44
		c-2.26,0-3.39,0.3-3.39,0.9c0,0.86-0.01,2.17-0.04,3.9c-0.03,1.74-0.04,3.04-0.04,3.9c0,0.85,0.01,2.13,0.04,3.84
		c0.03,1.71,0.04,2.99,0.04,3.86c0,0.63,1.17,0.95,3.52,0.95c2.54,0,4.53-0.84,5.98-2.53C92.57,123.9,93.25,121.8,93.25,119.19z"/>
	<path d="M127.02,123.79c0,1.13,0.07,2.81,0.2,5.03c0.13,2.23,0.2,3.9,0.2,5.01c0,0.59-0.26,0.9-0.77,0.95
		c-1.82,0.13-3.9,0.2-6.24,0.2c-0.28,0-0.47-0.42-0.56-1.26c-0.1-0.84-0.21-1.27-0.34-1.29c-0.12,0.06-0.27,0.18-0.46,0.37
		c-1.64,1.66-3.4,2.48-5.28,2.48c-2.86,0-5.23-1.13-7.1-3.39c-1.77-2.11-2.66-4.63-2.66-7.56c0-3.39,0.92-6.11,2.75-8.18
		c1.9-2.14,4.51-3.21,7.83-3.21c2.3,0,4.12,0.81,5.45,2.42c0.06,0.07,0.11,0.11,0.15,0.11c0.13,0,0.28-0.36,0.45-1.07
		c0.17-0.71,0.37-1.07,0.6-1.07c0.54,0,1.58,0.15,3.1,0.46c1.45,0.29,2.49,0.54,3.12,0.75c0.22,0.09,0.33,0.21,0.33,0.35
		c0,0.06-0.02,0.21-0.07,0.46C127.25,118.02,127.02,120.83,127.02,123.79z M119.94,123.92c0-1.25-0.39-2.28-1.18-3.09
		c-0.78-0.81-1.81-1.22-3.07-1.22c-1.26,0-2.28,0.4-3.06,1.21c-0.78,0.81-1.17,1.84-1.17,3.1c0,1.19,0.41,2.21,1.23,3.06
		c0.82,0.85,1.82,1.28,2.99,1.28c1.25,0,2.26-0.41,3.06-1.22S119.94,125.18,119.94,123.92z"/>
	<path d="M146.1,128.34c0,0.44-0.05,1.11-0.17,2c-0.11,0.89-0.16,1.55-0.16,1.97c0,0.42-0.04,0.69-0.13,0.8
		c-0.09,0.12-0.33,0.29-0.73,0.51c-1.89,1.04-3.99,1.56-6.29,1.56c-4.24,0-6.35-1.62-6.35-4.86c0-0.97,0.04-2.42,0.11-4.36
		c0.07-1.94,0.11-3.4,0.11-4.36c0-0.64-0.37-0.97-1.12-0.97c-0.06,0-0.15,0-0.29,0c-0.13,0.01-0.23,0.02-0.29,0.02
		c-0.56,0-0.83-0.2-0.83-0.59c0-0.23,0.02-0.59,0.05-1.08c0.04-0.48,0.06-0.84,0.06-1.08c0-0.31-0.02-0.78-0.06-1.41
		c-0.04-0.63-0.05-1.1-0.05-1.41c0-0.29,0.47-0.45,1.41-0.48c0.53-0.01,0.81-0.16,0.86-0.44c0.09-0.56,0.12-1.44,0.09-2.64
		c-0.06-1.89-0.09-2.79-0.09-2.7c0-1.7,0.16-2.55,0.48-2.55c0.4,0,0.96,0.09,1.69,0.26c0.84,0.19,1.41,0.3,1.74,0.33
		c0.75,0.1,1.88,0.24,3.38,0.42c0.37,0.03,0.55,0.15,0.55,0.37c0,0.59-0.05,1.47-0.14,2.66c-0.1,1.19-0.14,2.08-0.14,2.68
		c0,0.72,0.21,1.08,0.64,1.08c0.51,0,1.29-0.02,2.33-0.07c1.04-0.04,1.82-0.07,2.35-0.07c0.32,0,0.48,0.11,0.48,0.33
		c0,0.34-0.04,0.84-0.11,1.52c-0.07,0.67-0.11,1.18-0.11,1.52c0,0.35,0.01,0.86,0.02,1.54c0.01,0.67,0.02,1.19,0.02,1.54
		c0,0.31-0.21,0.46-0.64,0.46c-0.29,0-0.78-0.01-1.47-0.03c-0.69-0.02-1.18-0.03-1.47-0.03h-1.65c-0.22,0-0.33,0.32-0.33,0.97
		c0,0.35,0,0.87,0,1.56c0.01,0.7,0.02,1.22,0.02,1.56c0,1.23,0.14,2.08,0.42,2.55c0.4,0.63,1.17,0.95,2.33,0.95
		c0.37,0,0.89-0.08,1.57-0.25s1.16-0.25,1.44-0.25C145.94,127.85,146.1,128.01,146.1,128.34z"/>
	<path d="M170.5,123.79c0,1.13,0.07,2.81,0.2,5.03c0.13,2.23,0.2,3.9,0.2,5.01c0,0.59-0.26,0.9-0.77,0.95
		c-1.82,0.13-3.9,0.2-6.24,0.2c-0.28,0-0.46-0.42-0.56-1.26s-0.21-1.27-0.34-1.29c-0.12,0.06-0.27,0.18-0.46,0.37
		c-1.64,1.66-3.4,2.48-5.28,2.48c-2.86,0-5.23-1.13-7.1-3.39c-1.77-2.11-2.66-4.63-2.66-7.56c0-3.39,0.92-6.11,2.75-8.18
		c1.9-2.14,4.51-3.21,7.83-3.21c2.3,0,4.12,0.81,5.45,2.42c0.06,0.07,0.11,0.11,0.15,0.11c0.13,0,0.28-0.36,0.45-1.07
		c0.17-0.71,0.37-1.07,0.6-1.07c0.54,0,1.58,0.15,3.1,0.46c1.45,0.29,2.49,0.54,3.12,0.75c0.22,0.09,0.33,0.21,0.33,0.35
		c0,0.06-0.02,0.21-0.07,0.46C170.73,118.02,170.5,120.83,170.5,123.79z M163.42,123.92c0-1.25-0.39-2.28-1.18-3.09
		c-0.78-0.81-1.81-1.22-3.07-1.22c-1.26,0-2.28,0.4-3.06,1.21c-0.78,0.81-1.17,1.84-1.17,3.1c0,1.19,0.41,2.21,1.23,3.06
		c0.82,0.85,1.82,1.28,2.99,1.28c1.25,0,2.26-0.41,3.06-1.22C163.02,126.22,163.42,125.18,163.42,123.92z"/>
</g>
<g class="st1">
	<path d="M75.07,178.7c0,2.98-1.25,5.53-3.76,7.65c-2.2,1.88-4.87,3.07-8.02,3.58c-0.12,0.01-0.21,0.02-0.29,0.02
		c-0.34,0-1.08-1.03-2.24-3.09c-1.16-2.06-1.74-3.32-1.74-3.77c0-0.16,0.11-0.26,0.33-0.31c2.13-0.48,3.53-0.89,4.22-1.23
		c1.52-0.76,2.29-1.89,2.29-3.38c0-0.95-0.5-2.02-1.5-3.19c-1.73-1.99-2.67-3.1-2.81-3.32c-1.01-1.52-1.52-3.21-1.52-5.06
		c0-2.68,1.24-4.91,3.72-6.68c2.02-1.46,4.51-2.42,7.45-2.86c0.16-0.01,0.29-0.02,0.37-0.02c0.22,0,0.4,0.18,0.53,0.53
		c0.38,1.07,1.27,3,2.66,5.8c0.04,0.09,0.07,0.16,0.07,0.22c0,0.25-0.13,0.37-0.4,0.37c-0.12,0-0.32-0.02-0.59-0.07
		s-0.49-0.07-0.64-0.07c-1.06,0-1.98,0.24-2.77,0.73c-0.95,0.56-1.43,1.33-1.43,2.33c0,0.89,0.53,1.99,1.58,3.3
		c1.86,2.34,2.84,3.58,2.92,3.69C74.55,175.49,75.07,177.1,75.07,178.7z"/>
	<path d="M93.12,174.34c-0.01,0-0.46-0.12-1.33-0.35c-0.87-0.23-1.58-0.35-2.12-0.35c-1.3,0-2.34,0.39-3.12,1.18
		s-1.17,1.83-1.17,3.13c0,1.35,0.42,2.41,1.27,3.18s1.96,1.15,3.32,1.15c0.64,0,1.37-0.17,2.18-0.49c0.81-0.33,1.19-0.5,1.14-0.5
		c0.25,0,0.57,0.93,0.97,2.79c0.34,1.7,0.51,2.83,0.51,3.39s-0.91,1.03-2.73,1.43c-1.41,0.31-2.54,0.46-3.41,0.46
		c-3.22,0-5.88-1.08-7.98-3.25c-2.1-2.17-3.14-4.87-3.14-8.11c0-3.21,1.05-5.91,3.15-8.1c2.1-2.19,4.76-3.29,7.97-3.29
		c2.18,0,4.1,0.47,5.76,1.41c0.38,0.21,0.57,0.4,0.57,0.59s-0.22,1.06-0.66,2.59c-0.41,1.48-0.68,2.38-0.8,2.68
		C93.38,174.19,93.25,174.34,93.12,174.34z"/>
	<path d="M105.43,178.72c0,1.07,0.02,2.66,0.07,4.78c0.04,2.12,0.07,3.7,0.07,4.76c0,0.31-0.18,0.49-0.55,0.55
		c-0.5,0.09-1.62,0.13-3.36,0.13c-1.76,0-2.89-0.04-3.39-0.13c-0.32-0.06-0.52-0.15-0.59-0.29c-0.03-0.06-0.04-0.28-0.04-0.66
		c0-1.01,0.02-2.53,0.07-4.56s0.07-3.56,0.07-4.58c0-4.16-0.16-7.47-0.48-9.94c-0.03-0.23-0.04-0.39-0.04-0.46
		c0-0.29,0.2-0.44,0.59-0.44c0.41,0,1.04,0.04,1.88,0.13s1.48,0.13,1.9,0.13s1.06-0.04,1.91-0.11s1.49-0.11,1.91-0.11
		c0.35,0,0.53,0.15,0.53,0.44c0,0.06-0.01,0.2-0.04,0.42C105.59,171.64,105.43,174.95,105.43,178.72z M106,162.38
		c0,2.55-1.44,3.83-4.31,3.83c-1.23,0-2.25-0.32-3.06-0.97c-0.88-0.7-1.32-1.66-1.32-2.86c0-1.14,0.45-2.08,1.36-2.81
		c0.84-0.67,1.84-1.01,3.01-1.01c1.14,0,2.13,0.34,2.97,1.03C105.55,160.32,106,161.25,106,162.38z"/>
	<path d="M129.81,176.87c0,1.48-0.48,2.32-1.43,2.53c-0.16,0.03-1.68,0.19-4.55,0.48c-1.73,0.19-4.31,0.42-7.74,0.68
		c0.2,0.95,0.83,1.68,1.87,2.18c0.85,0.41,1.82,0.62,2.9,0.62c1.3,0,2.62-0.35,3.94-1.05c0.56-0.35,1.11-0.7,1.67-1.06
		c0.31,0.15,0.82,0.89,1.55,2.24c0.73,1.35,1.09,2.21,1.09,2.57c0,0.1-0.11,0.27-0.33,0.51c-1.79,1.92-4.57,2.88-8.33,2.88
		c-3.49,0-6.3-1.02-8.44-3.06c-2.2-2.07-3.3-4.83-3.3-8.29c0-3.37,0.98-6.13,2.95-8.29c2.02-2.23,4.7-3.34,8.05-3.34
		c2.81,0,5.2,1.03,7.17,3.08C128.83,171.6,129.81,174.04,129.81,176.87z M122.11,175.53c0-0.91-0.32-1.71-0.97-2.4
		c-0.65-0.69-1.41-1.03-2.31-1.03c-0.92,0-1.69,0.39-2.29,1.17c-0.56,0.72-0.84,1.56-0.84,2.53c0,0.4,0.21,0.59,0.62,0.59
		c1.08,0,2.77-0.17,5.06-0.51C121.87,175.81,122.11,175.69,122.11,175.53z"/>
	<path d="M154.08,188.17c0,0.4-0.21,0.62-0.62,0.68c-0.41,0.06-1.48,0.09-3.21,0.09c-1.85,0-2.99-0.04-3.43-0.13
		s-0.66-0.39-0.66-0.9c0-0.69,0.02-1.73,0.07-3.12c0.04-1.39,0.07-2.44,0.07-3.14c0-0.54-0.01-1.35-0.04-2.43s-0.04-1.89-0.04-2.43
		c0-2.01-0.87-3.01-2.62-3.01c-0.57,0-1.24,0.25-2,0.75c-0.82,0.56-1.23,1.11-1.23,1.65v11.87c0,0.48-0.23,0.75-0.68,0.81
		c-0.51,0.06-1.56,0.09-3.14,0.09c-1.71,0-2.83-0.04-3.34-0.13c-0.45-0.07-0.68-0.32-0.68-0.73c0-1.14,0.01-2.87,0.02-5.17
		s0.02-4.03,0.02-5.19c0-3.65-0.29-6.51-0.86-8.6c-0.03-0.13-0.04-0.24-0.04-0.33c0-0.23,0.11-0.4,0.33-0.48
		c0.92-0.1,2.15-0.26,3.69-0.48c2.33-0.45,3.64-0.68,3.94-0.68c0.16,0,0.29,0.5,0.37,1.48s0.21,1.48,0.37,1.48
		c-0.16,0,0.63-0.51,2.36-1.53c1.74-1.02,3.26-1.53,4.56-1.53c1.86,0,3.42,0.44,4.66,1.32c1.39,1.01,2.09,2.42,2.09,4.22v7.01
		c0,0.95,0.01,2.38,0.02,4.28C154.07,185.79,154.08,187.22,154.08,188.17z"/>
	<path d="M172.3,174.34c-0.01,0-0.46-0.12-1.33-0.35c-0.87-0.23-1.58-0.35-2.12-0.35c-1.3,0-2.34,0.39-3.12,1.18
		c-0.78,0.78-1.17,1.83-1.17,3.13c0,1.35,0.42,2.41,1.28,3.18c0.85,0.77,1.96,1.15,3.32,1.15c0.64,0,1.37-0.17,2.18-0.49
		c0.81-0.33,1.19-0.5,1.14-0.5c0.25,0,0.57,0.93,0.97,2.79c0.34,1.7,0.51,2.83,0.51,3.39s-0.91,1.03-2.73,1.43
		c-1.41,0.31-2.54,0.46-3.41,0.46c-3.22,0-5.88-1.08-7.98-3.25s-3.14-4.87-3.14-8.11c0-3.21,1.05-5.91,3.16-8.1
		c2.1-2.19,4.76-3.29,7.97-3.29c2.18,0,4.1,0.47,5.76,1.41c0.38,0.21,0.57,0.4,0.57,0.59s-0.22,1.06-0.66,2.59
		c-0.41,1.48-0.68,2.38-0.8,2.68C172.56,174.19,172.43,174.34,172.3,174.34z"/>
	<path d="M196.62,176.87c0,1.48-0.48,2.32-1.43,2.53c-0.16,0.03-1.68,0.19-4.55,0.48c-1.73,0.19-4.31,0.42-7.74,0.68
		c0.2,0.95,0.83,1.68,1.87,2.18c0.85,0.41,1.82,0.62,2.9,0.62c1.3,0,2.62-0.35,3.94-1.05c0.56-0.35,1.11-0.7,1.67-1.06
		c0.31,0.15,0.82,0.89,1.55,2.24c0.73,1.35,1.09,2.21,1.09,2.57c0,0.1-0.11,0.27-0.33,0.51c-1.79,1.92-4.57,2.88-8.33,2.88
		c-3.49,0-6.3-1.02-8.44-3.06c-2.2-2.07-3.3-4.83-3.3-8.29c0-3.37,0.98-6.13,2.95-8.29c2.02-2.23,4.71-3.34,8.05-3.34
		c2.81,0,5.2,1.03,7.17,3.08S196.62,174.04,196.62,176.87z M188.92,175.53c0-0.91-0.32-1.71-0.97-2.4
		c-0.64-0.69-1.41-1.03-2.31-1.03c-0.92,0-1.69,0.39-2.29,1.17c-0.56,0.72-0.83,1.56-0.83,2.53c0,0.4,0.21,0.59,0.62,0.59
		c1.08,0,2.77-0.17,5.06-0.51C188.68,175.81,188.92,175.69,188.92,175.53z"/>
</g>
</svg>
