<?xml version="1.0" encoding="utf-8"?>
<!-- Generator: Adobe Illustrator 24.1.1, SVG Export Plug-In . SVG Version: 6.00 Build 0)  -->
<svg version="1.1" id="Layer_1" xmlns="http://www.w3.org/2000/svg" xmlns:xlink="http://www.w3.org/1999/xlink" x="0px" y="0px"
	 viewBox="0 0 254 295" style="enable-background:new 0 0 254 295;" xml:space="preserve">
<style type="text/css">
	.st0{fill:#CE6AFF;}
	.st1{enable-background:new    ;}
</style>
<g>
	<g>
		<polygon class="st0" points="3.4,219.6 3.4,76.2 127.6,4.5 251.8,76.2 251.8,219.6 127.6,291.3 		"/>
		<path d="M127.6,8l121.2,70v139.9l-121.2,70l-121.2-70V78L127.6,8 M127.6,1L0.4,74.5v146.9l127.2,73.4l127.2-73.4V74.5L127.6,1
			L127.6,1z"/>
	</g>
	<g class="st1">
		<path d="M114.1,161.6c0,0.5-0.2,0.7-0.6,0.7h-7.8c-0.4,0-0.6-0.3-0.6-0.8c0-1.5,0.1-3.7,0.2-6.7c0.1-3,0.2-5.2,0.2-6.7
			c0-0.4-0.1-0.7-0.2-0.7c-0.2,0.1-1.1,2.4-2.9,6.8c-1.1,2.6-2.1,5.2-3.2,7.8c-0.1,0.3-0.3,0.5-0.5,0.6c-0.1,0-0.4,0-0.9,0
			c-0.8,0-1.2-0.1-1.4-0.4c-0.8-1.6-1.8-4-3.1-7c-1.4-3.3-2.4-5.6-3.1-7.1c0-0.1-0.1-0.2-0.2-0.2c-0.1,0.1-0.2,0.3-0.2,0.6
			c0,1.4,0,3.6,0.1,6.5c0.1,2.9,0.1,5,0.1,6.5c0,0.5-0.2,0.8-0.6,0.8h-7.3c-0.3,0-0.5,0-0.5-0.1c-0.1-0.1-0.1-0.3-0.1-0.5
			c0-1.6,0.1-4,0.2-7.2s0.2-5.6,0.2-7.2c0-1.7-0.1-4.9-0.2-9.6c0-1.2-0.1-3-0.2-5.4l0-0.4c0-0.3,0.3-0.4,0.9-0.4c0.8,0,2,0,3.6-0.1
			c1.6-0.1,2.8-0.1,3.6-0.1c0.2,0,0.4,0.3,0.7,0.9l6.4,14.1c0.5,1,0.8,1.4,1.1,1.4c0.2,0,0.5-0.5,1-1.6c1.5-3.1,3.7-7.7,6.6-13.9
			c0.2-0.6,0.5-0.9,0.8-0.9c0.4,0,1.1,0,1.9,0.1s1.5,0.1,1.9,0.1c0.4,0,0.9,0,1.7-0.1c0.8-0.1,1.3-0.1,1.7-0.1
			c0.4,0,0.7,0.2,0.7,0.5c0,1.7-0.1,4.3-0.2,7.7c-0.1,3.4-0.2,6-0.2,7.7c0,1.6,0.1,4,0.2,7.2C114,157.6,114.1,160,114.1,161.6z"/>
		<path d="M126.2,152.2c0,1.1,0,2.7,0.1,4.8c0,2.1,0.1,3.7,0.1,4.8c0,0.3-0.2,0.5-0.5,0.5c-0.5,0.1-1.6,0.1-3.4,0.1
			c-1.8,0-2.9,0-3.4-0.1c-0.3-0.1-0.5-0.2-0.6-0.3c0-0.1,0-0.3,0-0.7c0-1,0-2.5,0.1-4.6s0.1-3.6,0.1-4.6c0-4.2-0.2-7.5-0.5-9.9
			c0-0.2,0-0.4,0-0.5c0-0.3,0.2-0.4,0.6-0.4c0.4,0,1,0,1.9,0.1s1.5,0.1,1.9,0.1s1.1,0,1.9-0.1s1.5-0.1,1.9-0.1
			c0.4,0,0.5,0.1,0.5,0.4c0,0.1,0,0.2,0,0.4C126.3,145.1,126.2,148.4,126.2,152.2z M126.7,135.9c0,2.6-1.4,3.8-4.3,3.8
			c-1.2,0-2.2-0.3-3.1-1c-0.9-0.7-1.3-1.7-1.3-2.9c0-1.1,0.5-2.1,1.4-2.8c0.8-0.7,1.8-1,3-1c1.1,0,2.1,0.3,3,1
			C126.3,133.8,126.7,134.7,126.7,135.9z"/>
		<path d="M143.3,144.5c0,0.1-0.1,0.3-0.3,0.6c-0.4-0.1-0.8-0.2-1.2-0.2c-0.9,0-1.6,0.2-2.2,0.6c-0.7,0.4-1.1,1.1-1.1,1.9
			c0,0.5,0.4,1.2,1.1,2c1.1,1.2,1.8,2,2.1,2.4c0.7,1.1,1.1,2.3,1.1,3.6c0,0.7-0.1,1.5-0.4,2.4c-0.3,0.9-0.8,1.6-1.3,2
			c-1.1,0.9-2.4,1.7-3.8,2.4c-1.6,0.7-3,1-4.3,1c-0.3,0-0.9-0.8-2-2.4c-1-1.6-1.5-2.6-1.5-2.9c0-0.1,0.1-0.2,0.2-0.2
			c1-0.2,2.1-0.4,3.1-0.6c1.3-0.4,1.9-1.1,1.9-2c0-0.6-0.4-1.4-1.1-2.2c-1.3-1.5-2-2.3-2.1-2.4c-0.7-1.1-1.1-2.2-1.1-3.3
			c0-2.2,1.1-4.1,3.3-5.6c2-1.4,4.1-2,6.4-2c0.2,0,0.8,0.8,1.7,2.4C142.8,143.3,143.3,144.2,143.3,144.5z"/>
		<path d="M161,147.8c0,0-0.5-0.1-1.3-0.4c-0.9-0.2-1.6-0.4-2.1-0.4c-1.3,0-2.3,0.4-3.1,1.2c-0.8,0.8-1.2,1.8-1.2,3.1
			c0,1.3,0.4,2.4,1.3,3.2s2,1.2,3.3,1.2c0.6,0,1.4-0.2,2.2-0.5c0.8-0.3,1.2-0.5,1.1-0.5c0.2,0,0.6,0.9,1,2.8
			c0.3,1.7,0.5,2.8,0.5,3.4s-0.9,1-2.7,1.4c-1.4,0.3-2.5,0.5-3.4,0.5c-3.2,0-5.9-1.1-8-3.3c-2.1-2.2-3.1-4.9-3.1-8.1
			c0-3.2,1.1-5.9,3.2-8.1c2.1-2.2,4.8-3.3,8-3.3c2.2,0,4.1,0.5,5.8,1.4c0.4,0.2,0.6,0.4,0.6,0.6s-0.2,1.1-0.7,2.6
			c-0.4,1.5-0.7,2.4-0.8,2.7C161.2,147.7,161.1,147.8,161,147.8z"/>
		<path d="M174.8,157.5c0,1.5-0.5,2.7-1.5,3.7c-1,1-2.2,1.5-3.7,1.5c-1.4,0-2.7-0.5-3.6-1.5s-1.5-2.3-1.5-3.7s0.5-2.7,1.5-3.7
			c1-1,2.2-1.5,3.6-1.5c1.4,0,2.7,0.5,3.7,1.5C174.3,154.8,174.8,156,174.8,157.5z"/>
	</g>
</g>
</svg>
