<?xml version="1.0" encoding="utf-8"?>
<!-- Generator: Adobe Illustrator 23.0.3, SVG Export Plug-In . SVG Version: 6.00 Build 0)  -->
<svg version="1.1" id="Layer_1" xmlns="http://www.w3.org/2000/svg" xmlns:xlink="http://www.w3.org/1999/xlink" x="0px" y="0px"
	 viewBox="0 0 254 295" style="enable-background:new 0 0 254 295;" xml:space="preserve">
<style type="text/css">
	.st0{fill:#64D07D;}
	.st1{enable-background:new    ;}
</style>
<g>
	<polygon class="st0" points="3.46,219.13 3.46,75.73 127.66,4.02 251.85,75.73 251.85,219.14 127.66,290.84 	"/>
	<path d="M127.66,7.49l121.2,69.97V217.4l-121.2,69.97L6.46,217.4V77.46L127.66,7.49 M127.66,0.56L0.46,74v146.87l127.2,73.44
		l127.2-73.44V73.99L127.66,0.56L127.66,0.56z"/>
</g>
<g class="st1">
	<path d="M115.99,119.39c0,4.57-1.46,8.41-4.37,11.5c-2.98,3.14-6.74,4.7-11.3,4.7c-4.53,0-8.29-1.58-11.28-4.75
		c-2.93-3.09-4.4-6.91-4.4-11.45c0-4.56,1.47-8.39,4.4-11.5c2.99-3.18,6.75-4.77,11.28-4.77c4.5,0,8.25,1.59,11.26,4.77
		C114.52,111.03,115.99,114.86,115.99,119.39z M107.66,119.35c0-2.2-0.67-4.07-2-5.61c-1.39-1.61-3.17-2.42-5.34-2.42
		c-2.07,0-3.82,0.84-5.25,2.51c-1.39,1.61-2.09,3.47-2.09,5.56c0,2.24,0.65,4.11,1.96,5.61c1.38,1.57,3.17,2.35,5.39,2.35
		c2.07,0,3.83-0.83,5.28-2.48C106.97,123.28,107.66,121.44,107.66,119.35z"/>
	<path d="M141.73,114.79c0,1.08-0.05,2.71-0.15,4.88s-0.15,3.8-0.15,4.88c0,1.06,0.04,2.64,0.11,4.75c0.07,2.11,0.11,3.69,0.11,4.73
		c0,0.4-0.18,0.64-0.55,0.75c-0.56,0.15-1.74,0.22-3.54,0.22c-1.6,0-2.71-0.04-3.34-0.13c-0.28-0.04-0.45-0.22-0.53-0.53
		c-0.04-0.44-0.09-0.88-0.13-1.32c-0.07-0.67-0.18-1.01-0.31-1.01c0.21,0-0.54,0.5-2.22,1.49c-1.69,1-3.22,1.5-4.59,1.5
		c-3.88,0-6.18-1.75-6.9-5.25c-0.32-1.63-0.48-3.99-0.48-7.08c0-3.34,0.27-5.98,0.81-7.91c0.16-0.6,0.46-0.9,0.9-0.9
		c0.67,0,1.7,0.01,3.08,0.02c1.38,0.01,2.4,0.02,3.08,0.02c0.45,0,0.68,0.19,0.68,0.57c0,0.1-0.02,0.26-0.04,0.46
		c-0.31,1.99-0.46,4.02-0.46,6.07c0,2.55,0.08,4.29,0.24,5.23c0.26,1.61,1.22,2.42,2.88,2.42c0.65,0,1.34-0.29,2.1-0.86
		c0.75-0.57,1.15-1.17,1.18-1.78c0.03-0.54,0.04-4.22,0.04-11.04c0-0.48,0.04-0.77,0.11-0.86c0.09-0.15,0.35-0.22,0.79-0.22
		c0.72,0,1.8,0.01,3.24,0.02s2.52,0.02,3.24,0.02c0.44,0,0.7,0.11,0.77,0.33C141.72,114.38,141.73,114.56,141.73,114.79z"/>
	<path d="M159.94,121.08c0,0.57-0.32,0.86-0.95,0.86c-0.28,0-0.69-0.02-1.22-0.05c-0.54-0.04-0.93-0.05-1.2-0.05
		c-1.22,0-2.04,0.19-2.48,0.57c-0.44,0.38-0.66,1.15-0.66,2.31c0,0.63,0.01,1.59,0.03,2.87c0.02,1.28,0.03,2.24,0.03,2.87
		c0,0.43,0.03,1.06,0.09,1.9s0.09,1.47,0.09,1.88c0,0.35-0.24,0.55-0.73,0.59c-0.7,0.06-1.78,0.09-3.23,0.09
		c-1.39,0-2.51-0.04-3.34-0.13c-0.48-0.06-0.73-0.3-0.73-0.73c0-1.17,0.01-2.93,0.02-5.26s0.02-4.09,0.02-5.27
		c0-3.44-0.32-6.28-0.95-8.51c-0.03-0.13-0.04-0.24-0.04-0.33c0-0.22,0.11-0.37,0.33-0.44c0.81-0.09,1.99-0.25,3.54-0.48
		c2.32-0.45,3.51-0.68,3.58-0.68c0.26,0,0.43,0.46,0.5,1.39c0.07,0.92,0.21,1.38,0.4,1.38c-0.21,0,0.4-0.38,1.8-1.15
		c1.41-0.77,2.76-1.15,4.07-1.15c0.82,0,1.23,0.18,1.23,0.53c0,0.43-0.04,1.03-0.13,1.8c-0.09,0.84-0.14,1.44-0.15,1.8
		c0,0.43,0.01,0.99,0.02,1.69C159.92,120.23,159.94,120.8,159.94,121.08z"/>
</g>
<g class="st1">
	<path d="M95.05,164.69c0,0.29-0.16,0.44-0.48,0.44c-0.56,0-2.76-0.11-6.62-0.33c-0.09,3.71-0.13,6.29-0.13,7.76
		c0,1.73,0.07,4.33,0.21,7.8c0.14,3.47,0.21,6.08,0.21,7.8c0,0.28-0.07,0.46-0.2,0.53c-0.04,0.03-0.25,0.07-0.62,0.11
		c-0.88,0.12-2.17,0.18-3.87,0.18c-1.89,0-3.22-0.06-3.98-0.18c-0.41-0.07-0.62-0.3-0.62-0.68c0-1.73,0.07-4.32,0.22-7.78
		c0.15-3.46,0.22-6.05,0.22-7.78c0-1.14-0.06-3.69-0.18-7.65c-2.93,0.29-5.27,0.44-7.01,0.44c-0.23,0-0.35-0.07-0.35-0.22
		c0-0.19,0.1-0.75,0.31-1.69c0.23-1.03,0.37-1.65,0.4-1.87c0.04-0.69,0.1-1.38,0.15-2.07c0.1-1.1,0.28-1.65,0.53-1.65
		c0.03,0,0.13,0.01,0.31,0.02c2.37,0.31,5.88,0.46,10.53,0.46c1.32,0,3.75-0.14,7.3-0.42c1.91-0.15,2.87-0.22,2.88-0.22
		c0.29,0,0.46,0.02,0.51,0.05s0.07,0.18,0.09,0.43c0,0.4-0.01,0.95-0.04,1.65c-0.03,0.78-0.04,1.33-0.04,1.65
		c0,0.37,0.05,0.91,0.14,1.62S95.05,164.34,95.05,164.69z"/>
	<path d="M117.39,176.87c0,1.48-0.48,2.32-1.43,2.53c-0.16,0.03-1.68,0.19-4.55,0.48c-1.73,0.19-4.31,0.42-7.74,0.68
		c0.2,0.95,0.83,1.68,1.87,2.18c0.85,0.41,1.82,0.62,2.9,0.62c1.3,0,2.62-0.35,3.94-1.05c0.56-0.35,1.11-0.7,1.67-1.06
		c0.31,0.15,0.82,0.89,1.55,2.24c0.73,1.35,1.09,2.21,1.09,2.57c0,0.1-0.11,0.27-0.33,0.51c-1.79,1.92-4.57,2.88-8.33,2.88
		c-3.49,0-6.3-1.02-8.44-3.06c-2.2-2.07-3.3-4.83-3.3-8.29c0-3.37,0.98-6.13,2.95-8.29c2.02-2.23,4.7-3.34,8.05-3.34
		c2.81,0,5.2,1.03,7.17,3.08C116.4,171.6,117.39,174.04,117.39,176.87z M109.69,175.53c0-0.91-0.32-1.71-0.97-2.4
		c-0.65-0.69-1.41-1.03-2.31-1.03c-0.92,0-1.69,0.39-2.29,1.17c-0.56,0.72-0.84,1.56-0.84,2.53c0,0.4,0.21,0.59,0.62,0.59
		c1.08,0,2.77-0.17,5.06-0.51C109.45,175.81,109.69,175.69,109.69,175.53z"/>
	<path d="M141.9,177.82c0,1.13,0.07,2.81,0.2,5.03c0.13,2.23,0.2,3.9,0.2,5.01c0,0.59-0.26,0.9-0.77,0.95
		c-1.82,0.13-3.9,0.2-6.24,0.2c-0.28,0-0.46-0.42-0.56-1.26s-0.21-1.27-0.34-1.29c-0.12,0.06-0.27,0.18-0.46,0.37
		c-1.64,1.66-3.4,2.48-5.28,2.48c-2.86,0-5.23-1.13-7.1-3.39c-1.77-2.11-2.66-4.63-2.66-7.56c0-3.39,0.92-6.11,2.75-8.18
		c1.9-2.14,4.51-3.21,7.83-3.21c2.3,0,4.12,0.81,5.45,2.42c0.06,0.07,0.11,0.11,0.15,0.11c0.13,0,0.28-0.36,0.45-1.07
		c0.17-0.71,0.37-1.07,0.6-1.07c0.54,0,1.58,0.15,3.1,0.46c1.45,0.29,2.49,0.54,3.12,0.75c0.22,0.09,0.33,0.21,0.33,0.35
		c0,0.06-0.02,0.21-0.07,0.46C142.13,172.05,141.9,174.86,141.9,177.82z M134.82,177.95c0-1.25-0.39-2.28-1.18-3.09
		c-0.78-0.81-1.81-1.22-3.07-1.22c-1.26,0-2.28,0.4-3.06,1.21c-0.78,0.81-1.17,1.84-1.17,3.1c0,1.19,0.41,2.21,1.23,3.06
		c0.82,0.85,1.82,1.28,2.99,1.28c1.25,0,2.26-0.41,3.06-1.22C134.42,180.25,134.82,179.21,134.82,177.95z"/>
	<path d="M181.4,187.99c0,0.51-0.22,0.8-0.66,0.86c-0.44,0.06-1.52,0.09-3.25,0.09c-1.79,0-2.9-0.04-3.34-0.13s-0.66-0.45-0.66-1.08
		c0-0.67,0.02-1.68,0.07-3.02c0.04-1.34,0.07-2.35,0.07-3.02c0-2.56-0.03-4.39-0.09-5.47c-0.09-1.74-0.92-2.62-2.48-2.62
		c-0.69,0-1.37,0.29-2.06,0.87c-0.68,0.58-1.06,1.22-1.13,1.92c-0.06,0.62-0.09,2.42-0.09,5.41c0,0.69,0.02,1.73,0.07,3.13
		s0.07,2.45,0.07,3.15c0,0.48-0.21,0.73-0.64,0.73h-6.66c-0.41,0-0.62-0.3-0.62-0.9c0-0.69,0.02-1.72,0.07-3.1s0.07-2.42,0.07-3.12
		c0-0.54-0.01-1.36-0.04-2.46c-0.03-1.1-0.04-1.93-0.04-2.48c0-2.1-0.8-3.14-2.4-3.14c-0.65,0-1.34,0.25-2.09,0.75
		c-0.82,0.54-1.23,1.11-1.23,1.71c0,1.33,0.01,3.33,0.02,5.98c0.01,2.65,0.02,4.64,0.02,5.96c0,0.37-0.04,0.59-0.13,0.68
		s-0.32,0.15-0.68,0.18c-0.66,0.06-1.7,0.09-3.12,0.09c-0.92,0-1.97-0.04-3.14-0.13c-0.35-0.03-0.56-0.08-0.63-0.15
		c-0.07-0.07-0.1-0.29-0.1-0.66c0-1.17,0.01-2.93,0.02-5.26s0.02-4.09,0.02-5.27c0-2.4-0.18-5.11-0.53-8.11
		c-0.03-0.18-0.04-0.31-0.04-0.4c0-0.25,0.1-0.42,0.31-0.5c0.32-0.13,0.93-0.24,1.83-0.33c1.1-0.1,1.75-0.17,1.96-0.2
		c0.15-0.03,0.73-0.18,1.74-0.46c0.72-0.21,1.3-0.31,1.74-0.31c0.28,0,0.42,0.51,0.44,1.53s0.07,1.53,0.18,1.53
		c0.15-0.06,0.32-0.16,0.51-0.31c1.32-1.03,2.36-1.73,3.12-2.11c1.13-0.54,2.35-0.81,3.67-0.81c1.35,0,2.55,0.3,3.61,0.9
		c1.19,0.67,1.96,1.62,2.31,2.84c0.78-1.05,1.85-1.94,3.21-2.66c1.36-0.72,2.69-1.08,3.98-1.08c1.93,0,3.51,0.45,4.73,1.34
		c1.38,1.01,2.07,2.46,2.07,4.33c0,0.78-0.02,1.95-0.07,3.51c-0.04,1.56-0.07,2.73-0.07,3.51c0,0.92,0.02,2.31,0.07,4.17
		C181.38,185.68,181.4,187.07,181.4,187.99z"/>
</g>
</svg>
