<?xml version="1.0" encoding="utf-8"?>
<!-- Generator: Adobe Illustrator 23.0.3, SVG Export Plug-In . SVG Version: 6.00 Build 0)  -->
<svg version="1.1" id="Layer_1" xmlns="http://www.w3.org/2000/svg" xmlns:xlink="http://www.w3.org/1999/xlink" x="0px" y="0px"
	 viewBox="0 0 254 295" style="enable-background:new 0 0 254 295;" xml:space="preserve">
<style type="text/css">
	.st0{fill:#FFFA9F;stroke:#000000;stroke-width:2;stroke-miterlimit:10;}
	.st1{enable-background:new    ;}
</style>
<g>
	<polygon class="st0" points="2.61,219.61 2.61,76.21 126.81,4.51 251.01,76.21 251.01,219.61 126.81,291.31 	"/>
	<path class="st0" d="M126.81,8.01l121.2,70v139.9l-121.2,70l-121.2-70V78.01L126.81,8.01 M126.81,1.01l-127.2,73.5v146.9
		l127.2,73.4l127.2-73.4V74.51L126.81,1.01L126.81,1.01z"/>
</g>
<path d="M125.8,8.57L247,78.55v139.97L125.8,288.5L4.6,218.52V78.56L125.8,8.57 M125.8,1.64L-1.4,75.09v146.89l127.2,73.45
	L253,221.98V75.09L125.8,1.64L125.8,1.64z"/>
<g class="st1">
	<path d="M82.44,143.19c0,3.55-0.93,6.42-2.79,8.62c-1.99,2.33-4.74,3.5-8.24,3.5c-0.59,0-1.47-0.03-2.65-0.1
		c-1.18-0.07-2.06-0.1-2.65-0.1c-0.63,0-0.95,0.27-0.95,0.81c0,0.67,0.07,1.68,0.2,3.01c0.13,1.33,0.2,2.33,0.2,2.99
		c0,0.34-0.15,0.51-0.46,0.51c-0.89,0-2.23-0.03-4.02-0.08c-1.79-0.05-3.13-0.08-4.02-0.08c-0.43,0-0.64-0.21-0.64-0.64
		c0-1.63,0.03-4.07,0.08-7.33c0.05-3.26,0.08-5.7,0.08-7.33c0-4.6-0.2-9.44-0.59-14.51l-0.02-0.31c-0.03-0.28,0.19-0.45,0.66-0.51
		c1.14-0.15,3.66-0.22,7.56-0.22c2.3,0,4.51,0.03,6.62,0.09c3.47,0.1,6.27,1.19,8.4,3.28C81.36,136.93,82.44,139.73,82.44,143.19z
		 M73.67,143.54c0-3.41-1.66-5.12-4.99-5.12c-2.35,0-3.58,0.13-3.69,0.4c-0.1,0.19-0.15,1.88-0.15,5.08c0,0.45,0.02,1.12,0.06,2.01
		c0.04,0.89,0.05,1.56,0.05,2.01c0,0.29,1.32,0.44,3.96,0.44C72.08,148.36,73.67,146.75,73.67,143.54z"/>
	<path d="M106.89,146.6c0,2.84-0.09,4.57-0.26,5.19c-0.22,0.73-1.82,3.39-4.81,7.96c-0.47,0.72-1.68,2.38-3.63,4.99
		c-2.15,2.87-3.38,4.39-3.67,4.55c-0.35,0.22-2.6,0.33-6.75,0.33c-0.63,0-1.06-0.07-1.27-0.22c-0.19-0.6-0.43-1.31-0.73-2.13
		c-0.23-0.51-0.47-1.03-0.7-1.56c-0.34-0.76-0.51-1.27-0.51-1.52c0-0.28,0.12-0.42,0.37-0.42c4.07,0,6.11-0.93,6.11-2.79
		c0-0.16-1-1.62-2.99-4.38c-2.07-2.83-3.2-4.62-3.41-5.36c-0.12-0.42-0.18-1.94-0.18-4.55c0-0.53,0.01-1.32,0.04-2.38
		s0.04-1.86,0.04-2.38c0-0.38,0.24-0.57,0.73-0.57c0.75,0,1.88,0.02,3.4,0.07c1.52,0.04,2.65,0.07,3.4,0.07
		c0.31,0,0.46,0.23,0.46,0.68c0,0.41-0.02,1.03-0.07,1.86c-0.04,0.83-0.07,1.45-0.07,1.86c0,1.85,0.03,3.1,0.09,3.76
		c0.04,0.51,0.48,1.47,1.32,2.86c0.88,1.45,1.52,2.18,1.91,2.18c0.34,0,0.91-0.72,1.71-2.15c0.75-1.36,1.15-2.28,1.21-2.75
		c0.15-1.29,0.22-2.69,0.22-4.2c0-0.4-0.04-1-0.11-1.8c-0.07-0.81-0.11-1.41-0.11-1.82c0-0.28,0.15-0.42,0.46-0.42
		c0.75,0,1.86-0.03,3.35-0.09c1.49-0.06,2.6-0.09,3.35-0.09c0.38,0,0.64,0.19,0.77,0.57C106.79,142.59,106.89,144.15,106.89,146.6z"
		/>
	<path d="M124.23,155.83c0,0.44-0.06,1.11-0.17,2c-0.11,0.89-0.16,1.55-0.16,1.97c0,0.42-0.04,0.69-0.13,0.8
		c-0.09,0.12-0.33,0.29-0.73,0.51c-1.89,1.04-3.99,1.56-6.29,1.56c-4.24,0-6.35-1.62-6.35-4.86c0-0.97,0.04-2.42,0.11-4.36
		c0.07-1.94,0.11-3.4,0.11-4.36c0-0.64-0.37-0.97-1.12-0.97c-0.06,0-0.15,0-0.29,0c-0.13,0.01-0.23,0.02-0.29,0.02
		c-0.56,0-0.84-0.2-0.84-0.59c0-0.23,0.02-0.59,0.06-1.08c0.04-0.48,0.06-0.84,0.06-1.08c0-0.31-0.02-0.78-0.06-1.41
		s-0.06-1.1-0.06-1.41c0-0.29,0.47-0.45,1.41-0.48c0.53-0.01,0.81-0.16,0.86-0.44c0.09-0.56,0.12-1.44,0.09-2.64
		c-0.06-1.89-0.09-2.79-0.09-2.7c0-1.7,0.16-2.55,0.48-2.55c0.4,0,0.96,0.09,1.69,0.26c0.84,0.19,1.41,0.3,1.74,0.33
		c0.75,0.1,1.88,0.24,3.39,0.42c0.37,0.03,0.55,0.15,0.55,0.37c0,0.59-0.05,1.47-0.14,2.66s-0.14,2.08-0.14,2.68
		c0,0.72,0.21,1.08,0.64,1.08c0.51,0,1.29-0.02,2.33-0.07c1.04-0.04,1.82-0.07,2.35-0.07c0.32,0,0.48,0.11,0.48,0.33
		c0,0.34-0.04,0.84-0.11,1.52c-0.07,0.67-0.11,1.18-0.11,1.52c0,0.35,0.01,0.86,0.02,1.54c0.01,0.67,0.02,1.19,0.02,1.54
		c0,0.31-0.21,0.46-0.64,0.46c-0.29,0-0.78-0.01-1.47-0.03c-0.69-0.02-1.18-0.03-1.47-0.03h-1.65c-0.22,0-0.33,0.32-0.33,0.97
		c0,0.35,0,0.87,0,1.56c0.01,0.7,0.02,1.22,0.02,1.56c0,1.23,0.14,2.08,0.42,2.55c0.4,0.63,1.17,0.95,2.33,0.95
		c0.37,0,0.89-0.08,1.57-0.25c0.68-0.17,1.16-0.25,1.44-0.25C124.08,155.35,124.23,155.51,124.23,155.83z"/>
	<path d="M148.48,146.33l-0.04,15.17c0,0.51-0.21,0.8-0.62,0.86c-0.47,0.06-1.54,0.09-3.21,0.09c-1.61,0-2.73-0.06-3.36-0.18
		c-0.48-0.09-0.73-0.4-0.73-0.95c0-1.26,0.02-3.16,0.07-5.69c0.04-2.54,0.07-4.43,0.07-5.69c0-1.71-0.87-2.57-2.62-2.57
		c-0.59,0-1.28,0.24-2.07,0.7c-0.87,0.51-1.3,1.05-1.3,1.6v5.43c0,0.7,0.01,1.76,0.04,3.18c0.03,1.42,0.04,2.47,0.04,3.18
		c0,0.54-0.23,0.84-0.68,0.9s-1.73,0.09-3.83,0.09c-1.2,0-2.07-0.06-2.59-0.18c-0.53-0.12-0.79-0.37-0.79-0.77
		c0-1.16,0.01-2.9,0.02-5.22c0.01-2.32,0.02-4.06,0.02-5.22c0-4.79-0.05-8.76-0.15-11.89c-0.04-1.1-0.08-2.2-0.11-3.3
		c-0.07-1.28-0.21-2.37-0.4-3.28c-0.04-0.19-0.07-0.33-0.07-0.42c0-0.22,0.11-0.37,0.33-0.44c0.45-0.13,1.12-0.21,2-0.24
		c1.17-0.04,1.85-0.08,2.04-0.11l3.98-0.46c0.23,0,0.35,0.15,0.35,0.46c0,0.47-0.03,1.11-0.09,1.91c-0.06,0.94-0.09,1.58-0.09,1.91
		c-0.09,3.31-0.13,5.93-0.13,7.85c0,0.29,0.07,0.44,0.22,0.44c0.03,0,0.4-0.26,1.12-0.77c0.85-0.6,1.66-1.08,2.44-1.43
		c1.16-0.51,2.28-0.77,3.36-0.77c1.88,0,3.44,0.49,4.7,1.47C147.8,143.06,148.48,144.5,148.48,146.33z"/>
	<path d="M173.21,151.46c0,3.34-1.02,6.05-3.07,8.13c-2.04,2.08-4.73,3.12-8.06,3.12c-3.22,0-5.88-1.03-7.96-3.08
		s-3.12-4.69-3.12-7.91c0-3.4,1-6.16,2.99-8.28c1.99-2.12,4.69-3.18,8.09-3.18c3.31,0,5.99,1.04,8.05,3.11
		C172.19,145.45,173.21,148.14,173.21,151.46z M166,151.46c0-1.16-0.36-2.18-1.08-3.07c-0.72-0.89-1.65-1.33-2.79-1.33
		c-1.16,0-2.11,0.46-2.86,1.36c-0.7,0.85-1.06,1.86-1.06,3.03c0,1.19,0.35,2.21,1.06,3.06c0.75,0.91,1.7,1.36,2.86,1.36
		c1.14,0,2.09-0.45,2.84-1.36C165.66,153.66,166,152.64,166,151.46z"/>
	<path d="M197.72,161.63c0,0.4-0.21,0.62-0.62,0.68c-0.41,0.06-1.48,0.09-3.21,0.09c-1.85,0-2.99-0.04-3.43-0.13
		s-0.66-0.39-0.66-0.9c0-0.69,0.02-1.73,0.07-3.12c0.04-1.39,0.07-2.44,0.07-3.14c0-0.54-0.01-1.35-0.04-2.43s-0.04-1.89-0.04-2.43
		c0-2.01-0.87-3.01-2.62-3.01c-0.57,0-1.24,0.25-2,0.75c-0.82,0.56-1.23,1.11-1.23,1.65v11.87c0,0.48-0.23,0.75-0.68,0.81
		c-0.51,0.06-1.56,0.09-3.14,0.09c-1.71,0-2.83-0.04-3.34-0.13c-0.45-0.07-0.68-0.32-0.68-0.73c0-1.14,0.01-2.87,0.02-5.17
		s0.02-4.03,0.02-5.19c0-3.65-0.29-6.51-0.86-8.6c-0.03-0.13-0.04-0.24-0.04-0.33c0-0.23,0.11-0.4,0.33-0.48
		c0.92-0.1,2.15-0.26,3.69-0.48c2.33-0.45,3.64-0.68,3.94-0.68c0.16,0,0.29,0.5,0.37,1.48s0.21,1.48,0.37,1.48
		c-0.16,0,0.63-0.51,2.36-1.53c1.74-1.02,3.26-1.53,4.56-1.53c1.86,0,3.42,0.44,4.66,1.32c1.39,1.01,2.09,2.42,2.09,4.22v7.01
		c0,0.95,0.01,2.38,0.02,4.28C197.72,159.26,197.72,160.68,197.72,161.63z"/>
</g>
</svg>
