<?xml version="1.0" encoding="utf-8"?>
<!-- Generator: Adobe Illustrator 23.0.3, SVG Export Plug-In . SVG Version: 6.00 Build 0)  -->
<svg version="1.1" id="Layer_1" xmlns="http://www.w3.org/2000/svg" xmlns:xlink="http://www.w3.org/1999/xlink" x="0px" y="0px"
	 viewBox="0 0 254 295" style="enable-background:new 0 0 254 295;" xml:space="preserve">
<style type="text/css">
	.st0{fill:#FF5F64;}
	.st1{enable-background:new    ;}
</style>
<g>
	<polygon class="st0" points="3.15,219.14 3.15,75.73 127.34,4.03 251.54,75.73 251.54,219.14 127.34,290.85 	"/>
	<path d="M127.34,7.49l121.2,69.97V217.4l-121.2,69.97L6.15,217.41V77.47L127.34,7.49 M127.34,0.56L0.14,74v146.87l127.2,73.44
		l127.2-73.44V74L127.34,0.56L127.34,0.56z"/>
</g>
<g class="st1">
	<path d="M117.1,115.19c0,0.04-1.36,3-4.09,8.86c-2.77,5.98-4.35,9.34-4.75,10.09c-0.13,0.26-0.21,0.41-0.24,0.44
		c-0.06,0.07-0.2,0.14-0.42,0.2c-0.37,0.09-1.41,0.13-3.12,0.13c-1.6,0-2.57-0.04-2.92-0.13c-0.29-0.07-0.47-0.13-0.53-0.18
		c-0.06-0.04-0.15-0.18-0.29-0.42c-0.09-0.16-0.51-1.19-1.25-3.1l-2.4-6.11l-2.44,6.18c-0.25,0.7-0.66,1.71-1.23,3.03
		c-0.15,0.25-0.25,0.4-0.31,0.45c-0.06,0.05-0.23,0.1-0.51,0.14c-0.5,0.09-1.46,0.13-2.88,0.13c-1.76,0-2.81-0.04-3.17-0.13
		c-0.25-0.06-0.45-0.27-0.62-0.64c-5.75-11.8-8.62-18.11-8.62-18.95c0-1.17,0.04-2.93,0.12-5.26s0.12-4.09,0.12-5.26
		c0-0.48,0.15-0.73,0.44-0.73c0.84,0,2.1,0.04,3.79,0.11c1.69,0.07,2.96,0.11,3.81,0.11c0.34,0,0.51,0.14,0.51,0.42
		c0,1.17-0.05,2.94-0.16,5.31s-0.17,4.14-0.17,5.31c0,0.44,0.53,1.84,1.6,4.2c0.97,2.11,1.67,3.54,2.11,4.29
		c0.22,0.38,0.37,0.57,0.44,0.57c0.12,0,0.42-0.7,0.9-2.11c1.38-3.94,2.08-6.27,2.11-6.99c0.06-1.35,0.07-3.06,0.02-5.14
		c-0.04-3-0.07-4.73-0.07-5.17c0-0.28,0.02-0.44,0.07-0.5c0.04-0.05,0.21-0.1,0.48-0.14c0.75-0.09,2.04-0.13,3.87-0.13
		c2.8,0,4.2,0.2,4.2,0.59c0,0.98-0.04,2.51-0.11,4.57c-0.07,2.01-0.1,3.53-0.09,4.57v1.12c0,0.75,0.75,3.13,2.26,7.14
		c0.51,1.39,0.82,2.09,0.92,2.09c0.07,0,0.22-0.19,0.44-0.57c0.41-0.72,1.07-2.14,1.98-4.26c1.01-2.32,1.52-3.69,1.52-4.13
		c0-1.19-0.05-2.96-0.16-5.33c-0.11-2.37-0.17-4.14-0.17-5.31c0-0.26,0.17-0.4,0.51-0.4c0.86,0,2.17-0.04,3.9-0.11
		s3.04-0.11,3.9-0.11c0.28,0,0.42,0.29,0.42,0.88c0,1.16,0.04,2.89,0.12,5.2C117.06,112.32,117.1,114.05,117.1,115.19z"/>
	<path d="M140.32,122.84c0,1.48-0.48,2.32-1.43,2.53c-0.16,0.03-1.68,0.19-4.55,0.48c-1.73,0.19-4.31,0.42-7.74,0.68
		c0.2,0.95,0.83,1.68,1.87,2.18c0.85,0.41,1.82,0.62,2.9,0.62c1.3,0,2.62-0.35,3.94-1.05c0.56-0.35,1.11-0.7,1.67-1.06
		c0.31,0.15,0.82,0.89,1.55,2.24c0.73,1.35,1.09,2.21,1.09,2.57c0,0.1-0.11,0.27-0.33,0.51c-1.79,1.92-4.57,2.88-8.33,2.88
		c-3.49,0-6.3-1.02-8.44-3.06c-2.2-2.07-3.3-4.83-3.3-8.29c0-3.37,0.98-6.13,2.95-8.29c2.02-2.23,4.7-3.34,8.05-3.34
		c2.81,0,5.2,1.03,7.17,3.08S140.32,120.01,140.32,122.84z M132.63,121.5c0-0.91-0.32-1.71-0.97-2.4c-0.64-0.69-1.41-1.03-2.31-1.03
		c-0.92,0-1.69,0.39-2.29,1.17c-0.56,0.72-0.84,1.56-0.84,2.53c0,0.4,0.21,0.59,0.62,0.59c1.08,0,2.77-0.17,5.06-0.51
		C132.38,121.78,132.63,121.66,132.63,121.5z"/>
	<path d="M166.57,124.03c0,3.08-0.88,5.65-2.64,7.72c-1.88,2.2-4.32,3.3-7.34,3.3c-2.2,0-3.97-0.63-5.32-1.89
		c-0.1-0.09-0.19-0.13-0.26-0.13c-0.15,0-0.28,0.27-0.41,0.81c-0.13,0.54-0.27,0.84-0.45,0.9c-0.25,0.07-2.34,0.11-6.27,0.11
		c-0.92,0-1.38-0.17-1.38-0.51c0-0.04,0.01-0.15,0.04-0.33c0.29-2.33,0.44-6.77,0.44-13.32c0-6.26-0.22-11.7-0.66-16.33l-0.02-0.24
		c0-0.23,0.23-0.37,0.68-0.4c0.32-0.01,1.6-0.13,3.83-0.33c1.57-0.15,2.84-0.22,3.83-0.22c0.28,0,0.42,0.24,0.42,0.73
		c0,0.57-0.04,1.33-0.11,2.26c-0.09,1.16-0.14,1.92-0.15,2.29c-0.07,1.45-0.11,3.43-0.11,5.94c0,0.45,0.12,0.68,0.35,0.68
		c0.12,0,0.23-0.06,0.33-0.18c1.32-1.41,3.05-2.11,5.19-2.11c3.21,0,5.72,1.09,7.52,3.28C165.73,118.07,166.57,120.73,166.57,124.03
		z M158.61,123.79c0-1.22-0.37-2.25-1.12-3.09c-0.75-0.84-1.72-1.26-2.92-1.26c-1.23,0-2.2,0.42-2.91,1.26
		c-0.71,0.84-1.07,1.89-1.07,3.13c0,1.29,0.34,2.33,1.03,3.12c0.73,0.83,1.73,1.25,2.99,1.25c1.25,0,2.24-0.43,2.97-1.3
		C158.27,126.1,158.61,125.06,158.61,123.79z"/>
</g>
<g class="st1">
	<path d="M90.91,173.22c0,4.31-1.39,8.05-4.16,11.21c-2.45,2.83-5.88,4.32-10.31,4.46c-0.85,0.03-3.19,0.04-7.01,0.04
		c-0.72,0-1.8-0.02-3.24-0.07c-1.44-0.04-2.52-0.07-3.24-0.07c-0.43,0-0.64-0.17-0.64-0.51c0-1.61,0.06-4.03,0.19-7.27
		c0.12-3.23,0.19-5.65,0.19-7.27c0-1.68-0.06-4.21-0.19-7.57c-0.13-3.36-0.19-5.88-0.19-7.55c0-0.31,0.21-0.49,0.64-0.55
		c1.04-0.12,2.75-0.18,5.12-0.18c4.51,0,7.44,0.07,8.77,0.2c3.47,0.35,6.19,1.23,8.16,2.64c1.85,1.32,3.31,3.17,4.38,5.54
		C90.4,168.54,90.91,170.85,90.91,173.22z M82.49,173.22c0-2.48-0.74-4.5-2.22-6.07c-1.5-1.63-3.47-2.44-5.94-2.44
		c-2.26,0-3.39,0.3-3.39,0.9c0,0.86-0.01,2.17-0.04,3.9c-0.03,1.74-0.04,3.04-0.04,3.9c0,0.85,0.01,2.13,0.04,3.84
		c0.03,1.71,0.04,2.99,0.04,3.86c0,0.63,1.17,0.95,3.52,0.95c2.54,0,4.53-0.84,5.98-2.53C81.81,177.93,82.49,175.83,82.49,173.22z"
		/>
	<path d="M114.3,176.87c0,1.48-0.48,2.32-1.43,2.53c-0.16,0.03-1.68,0.19-4.55,0.48c-1.73,0.19-4.31,0.42-7.74,0.68
		c0.2,0.95,0.83,1.68,1.87,2.18c0.85,0.41,1.82,0.62,2.9,0.62c1.3,0,2.62-0.35,3.94-1.05c0.56-0.35,1.11-0.7,1.67-1.06
		c0.31,0.15,0.82,0.89,1.55,2.24c0.73,1.35,1.09,2.21,1.09,2.57c0,0.1-0.11,0.27-0.33,0.51c-1.79,1.92-4.57,2.88-8.33,2.88
		c-3.49,0-6.3-1.02-8.44-3.06c-2.2-2.07-3.3-4.83-3.3-8.29c0-3.37,0.98-6.13,2.95-8.29c2.02-2.23,4.7-3.34,8.05-3.34
		c2.81,0,5.2,1.03,7.17,3.08C113.32,171.6,114.3,174.04,114.3,176.87z M106.61,175.53c0-0.91-0.32-1.71-0.97-2.4
		c-0.65-0.69-1.41-1.03-2.31-1.03c-0.92,0-1.69,0.39-2.29,1.17c-0.56,0.72-0.84,1.56-0.84,2.53c0,0.4,0.21,0.59,0.62,0.59
		c1.08,0,2.77-0.17,5.06-0.51C106.37,175.81,106.61,175.69,106.61,175.53z"/>
	<path d="M129.58,171.02c0,0.15-0.11,0.34-0.33,0.59c-0.41-0.1-0.82-0.15-1.23-0.15c-0.87,0-1.59,0.19-2.18,0.57
		c-0.7,0.44-1.06,1.06-1.06,1.87c0,0.51,0.37,1.17,1.12,1.96c1.13,1.19,1.82,1.99,2.09,2.4c0.75,1.11,1.12,2.31,1.12,3.58
		c0,0.75-0.15,1.54-0.44,2.37c-0.34,0.92-0.76,1.6-1.28,2.02c-1.08,0.94-2.35,1.73-3.8,2.37c-1.57,0.67-3.01,1.01-4.33,1.01
		c-0.29,0-0.95-0.79-1.97-2.39c-1.02-1.59-1.53-2.56-1.53-2.91c0-0.13,0.08-0.21,0.24-0.24c1.03-0.19,2.06-0.38,3.1-0.57
		c1.29-0.41,1.93-1.08,1.93-2.02c0-0.64-0.37-1.39-1.12-2.24c-1.33-1.48-2.03-2.26-2.09-2.35c-0.75-1.06-1.12-2.17-1.12-3.34
		c0-2.2,1.11-4.07,3.34-5.61c1.99-1.36,4.13-2.04,6.4-2.04c0.23,0,0.81,0.79,1.74,2.36C129.12,169.84,129.58,170.76,129.58,171.02z"
		/>
	<path d="M140.88,178.72c0,1.07,0.02,2.66,0.07,4.78c0.04,2.12,0.07,3.7,0.07,4.76c0,0.31-0.18,0.49-0.55,0.55
		c-0.5,0.09-1.62,0.13-3.36,0.13c-1.76,0-2.89-0.04-3.39-0.13c-0.32-0.06-0.52-0.15-0.59-0.29c-0.03-0.06-0.04-0.28-0.04-0.66
		c0-1.01,0.02-2.53,0.07-4.56s0.07-3.56,0.07-4.58c0-4.16-0.16-7.47-0.48-9.94c-0.03-0.23-0.04-0.39-0.04-0.46
		c0-0.29,0.2-0.44,0.59-0.44c0.41,0,1.04,0.04,1.88,0.13s1.48,0.13,1.9,0.13c0.42,0,1.06-0.04,1.91-0.11
		c0.85-0.07,1.49-0.11,1.91-0.11c0.35,0,0.53,0.15,0.53,0.44c0,0.06-0.01,0.2-0.04,0.42C141.04,171.64,140.88,174.95,140.88,178.72z
		 M141.45,162.38c0,2.55-1.44,3.83-4.31,3.83c-1.23,0-2.25-0.32-3.06-0.97c-0.88-0.7-1.32-1.66-1.32-2.86
		c0-1.14,0.45-2.08,1.36-2.81c0.83-0.67,1.84-1.01,3.01-1.01c1.14,0,2.13,0.34,2.97,1.03C141,160.32,141.45,161.25,141.45,162.38z"
		/>
	<path d="M167.02,183.09c0,4.18-0.88,7.17-2.64,8.99c-1.82,1.86-4.84,2.79-9.06,2.79c-1.23,0-2.91-0.2-5.03-0.59
		c-2.71-0.5-4.07-1.08-4.07-1.76c0-0.28,0.31-1.71,0.95-4.31c0.1-0.41,0.26-0.62,0.48-0.62c0.07,0.01,0.15,0.04,0.24,0.09
		c2.26,1.11,4.34,1.67,6.26,1.67c1.06,0,2.1-0.26,3.14-0.79c1.26-0.63,1.89-1.42,1.89-2.37v-1.47c-1.49,1.41-3.42,2.11-5.76,2.11
		c-2.75,0-5.02-0.99-6.79-2.97c-1.71-1.91-2.57-4.25-2.57-7.04c0-2.8,0.82-5.12,2.46-6.97c1.71-1.92,3.96-2.88,6.73-2.88
		c2.21,0,3.91,0.79,5.08,2.38c0.23,0.32,0.4,0.48,0.48,0.48c0.13,0,0.2-0.26,0.2-0.79c0-1.17,0.13-1.76,0.4-1.76
		c0.23,0,1.5,0.12,3.8,0.36c2.3,0.24,3.5,0.38,3.58,0.41c0.25,0.09,0.37,0.28,0.37,0.57c0,1.01-0.03,2.52-0.1,4.53
		c-0.07,2.01-0.1,3.52-0.1,4.53c0,0.6,0.01,1.5,0.02,2.7C167.01,181.59,167.02,182.49,167.02,183.09z M159.41,177
		c0-1.07-0.36-2-1.07-2.78s-1.6-1.18-2.67-1.18c-1.07,0-1.96,0.4-2.67,1.2c-0.71,0.8-1.07,1.73-1.07,2.8c0,1.07,0.36,1.99,1.09,2.77
		c0.73,0.78,1.61,1.17,2.65,1.17c1.07,0,1.96-0.4,2.67-1.19C159.06,179,159.41,178.07,159.41,177z"/>
	<path d="M192.67,188.17c0,0.4-0.21,0.62-0.62,0.68s-1.48,0.09-3.21,0.09c-1.85,0-2.99-0.04-3.43-0.13
		c-0.44-0.09-0.66-0.39-0.66-0.9c0-0.69,0.02-1.73,0.07-3.12c0.04-1.39,0.07-2.44,0.07-3.14c0-0.54-0.01-1.35-0.04-2.43
		s-0.04-1.89-0.04-2.43c0-2.01-0.87-3.01-2.62-3.01c-0.57,0-1.24,0.25-2,0.75c-0.82,0.56-1.23,1.11-1.23,1.65v11.87
		c0,0.48-0.23,0.75-0.68,0.81c-0.51,0.06-1.56,0.09-3.14,0.09c-1.71,0-2.83-0.04-3.34-0.13c-0.46-0.07-0.68-0.32-0.68-0.73
		c0-1.14,0.01-2.87,0.02-5.17s0.02-4.03,0.02-5.19c0-3.65-0.29-6.51-0.86-8.6c-0.03-0.13-0.04-0.24-0.04-0.33
		c0-0.23,0.11-0.4,0.33-0.48c0.92-0.1,2.15-0.26,3.69-0.48c2.33-0.45,3.64-0.68,3.94-0.68c0.16,0,0.29,0.5,0.37,1.48
		s0.21,1.48,0.37,1.48c-0.16,0,0.63-0.51,2.36-1.53c1.74-1.02,3.26-1.53,4.56-1.53c1.86,0,3.42,0.44,4.66,1.32
		c1.39,1.01,2.09,2.42,2.09,4.22v7.01c0,0.95,0.01,2.38,0.02,4.28C192.67,185.79,192.67,187.22,192.67,188.17z"/>
</g>
</svg>
