<?xml version="1.0" encoding="utf-8"?>
<!-- Generator: Adobe Illustrator 23.0.3, SVG Export Plug-In . SVG Version: 6.00 Build 0)  -->
<svg version="1.1" id="Layer_1" xmlns="http://www.w3.org/2000/svg" xmlns:xlink="http://www.w3.org/1999/xlink" x="0px" y="0px"
	 viewBox="0 0 254 295" style="enable-background:new 0 0 254 295;" xml:space="preserve">
<style type="text/css">
	.st0{fill:#FF915F;}
	.st1{enable-background:new    ;}
</style>
<g>
	<polygon class="st0" points="3.35,219.13 3.35,75.73 127.55,4.02 251.74,75.73 251.74,219.14 127.55,290.84 	"/>
	<path d="M127.55,7.49l121.2,69.97V217.4l-121.2,69.97L6.35,217.4V77.46L127.55,7.49 M127.55,0.56L0.35,74v146.87l127.2,73.44
		l127.2-73.44V73.99L127.55,0.56L127.55,0.56z"/>
</g>
<g class="st1">
	<path d="M87.52,115.19c0,0.04-1.36,3-4.09,8.86c-2.77,5.98-4.35,9.34-4.75,10.09c-0.13,0.26-0.21,0.41-0.24,0.44
		c-0.06,0.07-0.2,0.14-0.42,0.2c-0.37,0.09-1.41,0.13-3.12,0.13c-1.6,0-2.57-0.04-2.92-0.13c-0.29-0.07-0.47-0.13-0.53-0.18
		c-0.06-0.04-0.15-0.18-0.29-0.42c-0.09-0.16-0.51-1.19-1.25-3.1l-2.4-6.11l-2.44,6.18c-0.25,0.7-0.66,1.71-1.23,3.03
		c-0.15,0.25-0.25,0.4-0.31,0.45c-0.06,0.05-0.23,0.1-0.51,0.14c-0.5,0.09-1.46,0.13-2.88,0.13c-1.76,0-2.81-0.04-3.17-0.13
		c-0.25-0.06-0.45-0.27-0.62-0.64c-5.75-11.8-8.62-18.11-8.62-18.95c0-1.17,0.04-2.93,0.12-5.26s0.12-4.09,0.12-5.26
		c0-0.48,0.15-0.73,0.44-0.73c0.84,0,2.1,0.04,3.79,0.11c1.69,0.07,2.96,0.11,3.81,0.11c0.34,0,0.51,0.14,0.51,0.42
		c0,1.17-0.05,2.94-0.16,5.31s-0.17,4.14-0.17,5.31c0,0.44,0.53,1.84,1.6,4.2c0.97,2.11,1.67,3.54,2.11,4.29
		c0.22,0.38,0.37,0.57,0.44,0.57c0.12,0,0.42-0.7,0.9-2.11c1.38-3.94,2.08-6.27,2.11-6.99c0.06-1.35,0.07-3.06,0.02-5.14
		c-0.04-3-0.07-4.73-0.07-5.17c0-0.28,0.02-0.44,0.07-0.5c0.04-0.05,0.21-0.1,0.48-0.14c0.75-0.09,2.04-0.13,3.87-0.13
		c2.8,0,4.2,0.2,4.2,0.59c0,0.98-0.04,2.51-0.11,4.57c-0.07,2.01-0.1,3.53-0.09,4.57v1.12c0,0.75,0.75,3.13,2.26,7.14
		c0.51,1.39,0.82,2.09,0.92,2.09c0.07,0,0.22-0.19,0.44-0.57c0.41-0.72,1.07-2.14,1.98-4.26c1.01-2.32,1.52-3.69,1.52-4.13
		c0-1.19-0.05-2.96-0.16-5.33c-0.11-2.37-0.17-4.14-0.17-5.31c0-0.26,0.17-0.4,0.51-0.4c0.86,0,2.17-0.04,3.9-0.11
		s3.04-0.11,3.9-0.11c0.28,0,0.42,0.29,0.42,0.88c0,1.16,0.04,2.89,0.12,5.2C87.48,112.32,87.52,114.05,87.52,115.19z"/>
	<path d="M112.54,118.84l-0.04,15.17c0,0.51-0.21,0.8-0.62,0.86c-0.47,0.06-1.54,0.09-3.21,0.09c-1.61,0-2.73-0.06-3.36-0.18
		c-0.48-0.09-0.73-0.4-0.73-0.95c0-1.26,0.02-3.16,0.07-5.69c0.04-2.54,0.07-4.43,0.07-5.69c0-1.71-0.87-2.57-2.62-2.57
		c-0.59,0-1.28,0.24-2.07,0.7c-0.87,0.51-1.3,1.05-1.3,1.6v5.43c0,0.7,0.01,1.76,0.04,3.18c0.03,1.42,0.04,2.47,0.04,3.18
		c0,0.54-0.23,0.84-0.68,0.9c-0.45,0.06-1.73,0.09-3.83,0.09c-1.2,0-2.07-0.06-2.59-0.18c-0.53-0.12-0.79-0.37-0.79-0.77
		c0-1.16,0.01-2.9,0.02-5.22c0.01-2.32,0.02-4.06,0.02-5.22c0-4.79-0.05-8.76-0.15-11.89c-0.04-1.1-0.08-2.2-0.11-3.3
		c-0.07-1.28-0.21-2.37-0.4-3.28c-0.04-0.19-0.07-0.33-0.07-0.42c0-0.22,0.11-0.37,0.33-0.44c0.45-0.13,1.12-0.21,2-0.24
		c1.17-0.04,1.85-0.08,2.04-0.11l3.98-0.46c0.23,0,0.35,0.15,0.35,0.46c0,0.47-0.03,1.11-0.09,1.91c-0.06,0.94-0.09,1.58-0.09,1.91
		c-0.09,3.31-0.13,5.93-0.13,7.85c0,0.29,0.07,0.44,0.22,0.44c0.03,0,0.4-0.26,1.12-0.77c0.85-0.6,1.66-1.08,2.44-1.43
		c1.16-0.51,2.28-0.77,3.36-0.77c1.88,0,3.44,0.49,4.7,1.47C111.86,115.56,112.54,117.01,112.54,118.84z"/>
	<path d="M138.22,123.79c0,1.13,0.07,2.81,0.2,5.03c0.13,2.23,0.2,3.9,0.2,5.01c0,0.59-0.26,0.9-0.77,0.95
		c-1.82,0.13-3.9,0.2-6.24,0.2c-0.28,0-0.46-0.42-0.56-1.26s-0.21-1.27-0.34-1.29c-0.12,0.06-0.27,0.18-0.46,0.37
		c-1.64,1.66-3.4,2.48-5.28,2.48c-2.86,0-5.23-1.13-7.1-3.39c-1.77-2.11-2.66-4.63-2.66-7.56c0-3.39,0.92-6.11,2.75-8.18
		c1.9-2.14,4.51-3.21,7.83-3.21c2.3,0,4.12,0.81,5.45,2.42c0.06,0.07,0.11,0.11,0.15,0.11c0.13,0,0.28-0.36,0.45-1.07
		c0.17-0.71,0.37-1.07,0.6-1.07c0.54,0,1.58,0.15,3.1,0.46c1.45,0.29,2.49,0.54,3.12,0.75c0.22,0.09,0.33,0.21,0.33,0.35
		c0,0.06-0.02,0.21-0.07,0.46C138.45,118.02,138.22,120.83,138.22,123.79z M131.14,123.92c0-1.25-0.39-2.28-1.18-3.09
		c-0.78-0.81-1.81-1.22-3.07-1.22c-1.26,0-2.28,0.4-3.06,1.21c-0.78,0.81-1.17,1.84-1.17,3.1c0,1.19,0.41,2.21,1.23,3.06
		c0.82,0.85,1.82,1.28,2.99,1.28c1.25,0,2.26-0.41,3.06-1.22C130.74,126.22,131.14,125.18,131.14,123.92z"/>
	<path d="M157.3,128.34c0,0.44-0.06,1.11-0.17,2c-0.11,0.89-0.17,1.55-0.17,1.97c0,0.42-0.04,0.69-0.13,0.8s-0.33,0.29-0.73,0.51
		c-1.89,1.04-3.99,1.56-6.29,1.56c-4.24,0-6.35-1.62-6.35-4.86c0-0.97,0.04-2.42,0.11-4.36c0.07-1.94,0.11-3.4,0.11-4.36
		c0-0.64-0.37-0.97-1.12-0.97c-0.06,0-0.15,0-0.29,0c-0.13,0.01-0.23,0.02-0.29,0.02c-0.56,0-0.84-0.2-0.84-0.59
		c0-0.23,0.02-0.59,0.06-1.08c0.04-0.48,0.05-0.84,0.05-1.08c0-0.31-0.02-0.78-0.05-1.41c-0.04-0.63-0.06-1.1-0.06-1.41
		c0-0.29,0.47-0.45,1.41-0.48c0.53-0.01,0.81-0.16,0.86-0.44c0.09-0.56,0.12-1.44,0.09-2.64c-0.06-1.89-0.09-2.79-0.09-2.7
		c0-1.7,0.16-2.55,0.48-2.55c0.4,0,0.96,0.09,1.69,0.26c0.83,0.19,1.41,0.3,1.74,0.33c0.75,0.1,1.88,0.24,3.39,0.42
		c0.37,0.03,0.55,0.15,0.55,0.37c0,0.59-0.05,1.47-0.14,2.66c-0.09,1.19-0.14,2.08-0.14,2.68c0,0.72,0.21,1.08,0.64,1.08
		c0.51,0,1.29-0.02,2.33-0.07c1.04-0.04,1.82-0.07,2.35-0.07c0.32,0,0.48,0.11,0.48,0.33c0,0.34-0.04,0.84-0.11,1.52
		c-0.07,0.67-0.11,1.18-0.11,1.52c0,0.35,0.01,0.86,0.02,1.54c0.01,0.67,0.02,1.19,0.02,1.54c0,0.31-0.21,0.46-0.64,0.46
		c-0.29,0-0.78-0.01-1.47-0.03c-0.69-0.02-1.18-0.03-1.47-0.03h-1.65c-0.22,0-0.33,0.32-0.33,0.97c0,0.35,0,0.87,0,1.56
		c0.01,0.7,0.02,1.22,0.02,1.56c0,1.23,0.14,2.08,0.42,2.55c0.4,0.63,1.17,0.95,2.33,0.95c0.37,0,0.89-0.08,1.57-0.25
		c0.68-0.17,1.16-0.25,1.44-0.25C157.14,127.85,157.3,128.01,157.3,128.34z"/>
	<path d="M179,124.69c0,1.07,0.02,2.66,0.07,4.78c0.04,2.12,0.07,3.7,0.07,4.76c0,0.31-0.18,0.49-0.55,0.55
		c-0.5,0.09-1.62,0.13-3.36,0.13c-1.76,0-2.89-0.04-3.38-0.13c-0.32-0.06-0.52-0.15-0.59-0.29c-0.03-0.06-0.04-0.28-0.04-0.66
		c0-1.01,0.02-2.53,0.07-4.56s0.07-3.56,0.07-4.58c0-4.16-0.16-7.47-0.48-9.94c-0.03-0.23-0.04-0.39-0.04-0.46
		c0-0.29,0.2-0.44,0.59-0.44c0.41,0,1.04,0.04,1.88,0.13s1.48,0.13,1.9,0.13c0.43,0,1.06-0.04,1.91-0.11
		c0.85-0.07,1.49-0.11,1.91-0.11c0.35,0,0.53,0.15,0.53,0.44c0,0.06-0.01,0.2-0.04,0.42C179.16,117.61,179,120.92,179,124.69z
		 M179.57,108.35c0,2.55-1.44,3.83-4.31,3.83c-1.23,0-2.25-0.32-3.06-0.97c-0.88-0.7-1.32-1.66-1.32-2.86
		c0-1.14,0.45-2.08,1.36-2.81c0.84-0.67,1.84-1.01,3.01-1.01c1.14,0,2.13,0.34,2.97,1.03C179.12,106.29,179.57,107.23,179.57,108.35
		z"/>
	<path d="M196.1,116.99c0,0.15-0.11,0.34-0.33,0.59c-0.41-0.1-0.82-0.15-1.23-0.15c-0.87,0-1.59,0.19-2.18,0.57
		c-0.7,0.44-1.05,1.06-1.05,1.87c0,0.51,0.37,1.17,1.12,1.96c1.13,1.19,1.82,1.99,2.09,2.4c0.75,1.11,1.12,2.31,1.12,3.58
		c0,0.75-0.15,1.54-0.44,2.37c-0.34,0.92-0.76,1.6-1.27,2.02c-1.08,0.94-2.35,1.73-3.8,2.37c-1.57,0.67-3.01,1.01-4.33,1.01
		c-0.29,0-0.95-0.79-1.97-2.39c-1.02-1.59-1.53-2.56-1.53-2.91c0-0.13,0.08-0.21,0.24-0.24c1.03-0.19,2.06-0.38,3.1-0.57
		c1.29-0.41,1.93-1.08,1.93-2.02c0-0.64-0.37-1.39-1.12-2.24c-1.33-1.48-2.03-2.26-2.09-2.35c-0.75-1.06-1.12-2.17-1.12-3.34
		c0-2.2,1.11-4.07,3.34-5.61c1.99-1.36,4.13-2.04,6.4-2.04c0.23,0,0.81,0.79,1.74,2.36C195.64,115.81,196.1,116.73,196.1,116.99z"/>
</g>
<g class="st1">
	<path d="M122.41,183.84c0,0.24-0.15,0.54-0.46,0.92c-2.7,3.21-6.28,4.81-10.75,4.81c-4.57,0-8.28-1.56-11.12-4.68
		c-2.77-3.02-4.16-6.83-4.16-11.43c0-4.46,1.36-8.24,4.07-11.34c2.83-3.25,6.43-4.88,10.79-4.88c4.75,0,8.47,1.46,11.17,4.38
		c0.29,0.32,0.44,0.61,0.44,0.86c0,0.28-0.51,1.31-1.53,3.1s-1.66,2.79-1.92,3.01c-0.12,0.12-0.26,0.18-0.44,0.18
		c-0.07,0-0.44-0.29-1.1-0.88c-0.79-0.7-1.57-1.25-2.33-1.65c-1.16-0.59-2.36-0.88-3.61-0.88c-2.15,0-3.88,0.81-5.17,2.42
		c-1.19,1.49-1.78,3.34-1.78,5.54c0,2.23,0.59,4.1,1.78,5.61c1.29,1.64,3.01,2.46,5.17,2.46c1.28,0,2.48-0.28,3.63-0.83
		c0.75-0.37,1.51-0.88,2.29-1.54c0.65-0.56,1-0.83,1.08-0.83c0.15,0,0.29,0.08,0.44,0.24c0.23,0.26,0.87,1.18,1.91,2.75
		C121.87,182.78,122.41,183.68,122.41,183.84z"/>
	<path d="M139.78,178.7c0,2.98-1.25,5.53-3.76,7.65c-2.2,1.88-4.87,3.07-8.02,3.58c-0.12,0.01-0.21,0.02-0.29,0.02
		c-0.34,0-1.08-1.03-2.24-3.09c-1.16-2.06-1.74-3.32-1.74-3.77c0-0.16,0.11-0.26,0.33-0.31c2.13-0.48,3.53-0.89,4.22-1.23
		c1.52-0.76,2.29-1.89,2.29-3.38c0-0.95-0.5-2.02-1.5-3.19c-1.73-1.99-2.67-3.1-2.81-3.32c-1.01-1.52-1.52-3.21-1.52-5.06
		c0-2.68,1.24-4.91,3.72-6.68c2.02-1.46,4.51-2.42,7.45-2.86c0.16-0.01,0.29-0.02,0.37-0.02c0.22,0,0.4,0.18,0.53,0.53
		c0.38,1.07,1.27,3,2.66,5.8c0.04,0.09,0.07,0.16,0.07,0.22c0,0.25-0.13,0.37-0.4,0.37c-0.12,0-0.32-0.02-0.59-0.07
		s-0.49-0.07-0.64-0.07c-1.06,0-1.98,0.24-2.77,0.73c-0.95,0.56-1.43,1.33-1.43,2.33c0,0.89,0.53,1.99,1.58,3.3
		c1.86,2.34,2.84,3.58,2.92,3.69C139.26,175.49,139.78,177.1,139.78,178.7z"/>
	<path d="M159.83,166.3c0,3.65-1.47,6.32-4.42,8.02c-2.21,1.26-3.42,2.54-3.6,3.83c-0.04,0.34-0.08,0.67-0.11,1.01
		c-0.1,0.31-0.37,0.46-0.79,0.46c-1.48,0-2.54,0.09-3.19,0.26c-0.13,0.04-0.23,0.07-0.31,0.07c-0.53,0-0.79-0.72-0.79-2.15
		c0-1.25,0.72-2.79,2.17-4.63c1.44-1.84,2.17-3.38,2.17-4.63c0-1.89-1-2.84-3.01-2.84c-1.28,0-2.93,0.5-4.97,1.49
		c-0.63,0-0.95-1.87-0.95-5.61c0-0.41,0.02-0.72,0.07-0.92c0.21-0.98,1.43-1.74,3.67-2.29c1.63-0.4,3.2-0.59,4.7-0.59
		c2.65,0,4.85,0.74,6.6,2.22C158.9,161.58,159.83,163.67,159.83,166.3z M153.87,185.2c0,1.13-0.39,2.1-1.18,2.92
		s-1.74,1.23-2.87,1.23c-1.13,0-2.08-0.41-2.87-1.23s-1.18-1.79-1.18-2.92c0-1.13,0.39-2.09,1.18-2.89s1.74-1.2,2.87-1.2
		c1.13,0,2.08,0.4,2.87,1.2S153.87,184.07,153.87,185.2z"/>
</g>
</svg>
